<svg xmlns="http://www.w3.org/2000/svg" viewBox="0 0 1543.1 1700"><defs><style>.cls-1{fill:#120f0e;}.cls-2{fill:#fff;}</style></defs><g id="Capa_2" data-name="Capa 2"><g id="Ñëîé_4" data-name="Ñëîé 4"><circle class="cls-1" cx="771.42" cy="875.77" r="607.62" transform="translate(-393.32 801.98) rotate(-45)"/><path d="M400.06,1444.81C230.3,1344.68,119.84,1178.08,88.52,989.36,57.88,798.49,107.09,607.78,235.87,457.64,131.1,617,81.15,786.13,113.76,985.2,143.09,1161.75,234.14,1318.45,400.06,1444.81Z"/><path d="M1334.8,495.9c95.52,127,136.5,275.34,126.7,431.2-10.55,186.66-110.31,378.3-285.24,494.35,167.34-146.94,247.76-318.72,260.07-496.2C1448.69,769.36,1411.36,633,1334.8,495.9Z"/><path class="cls-1" d="M389.56,1528.93c-117.48-61.52-216.47-157.47-281.3-264.79-83-137-118.77-289.56-105.6-451.43C16,683.3,53.23,568,137.26,450.65,67.39,567,31.18,669.14,18.63,814c-10.25,159.11,25.75,308.9,103.33,442C185.34,1360.86,267.66,1453.22,389.56,1528.93Z"/><path class="cls-1" d="M1208.75,1485.43c162.09-105.9,268.66-263.31,305.15-471.93,33-191.77.8-383.53-104.71-557.45,108.92,151.49,157.82,348.38,122.64,560.48C1495.41,1233.63,1371.48,1398.08,1208.75,1485.43Z"/><path class="cls-2" d="M544.19,1658.51l-131.77-54.46,18.06-43.71,86.56-29L438,1498.64l18.06-43.7,147.15,60.82L585,1559.68l-86.39,28.58,63.6,26.55Z"/><path class="cls-1" d="M544.19,1664a5.5,5.5,0,0,1-2.1-.42l-131.77-54.46a5.49,5.49,0,0,1-3-7.17l18.06-43.7a5.46,5.46,0,0,1,3.33-3.1l72.65-24.36-65.51-27.08a5.48,5.48,0,0,1-3-7.16L451,1452.84a5.47,5.47,0,0,1,7.16-3l147.15,60.82a5.47,5.47,0,0,1,3,7.16l-18.16,43.93a5.47,5.47,0,0,1-3.34,3.11l-72.44,24,50,20.88a5.49,5.49,0,0,1,3,7.16l-18.06,43.71a5.5,5.5,0,0,1-5.07,3.39Zm-124.61-62.92,121.64,50.27,13.88-33.59-58.56-24.44a5.48,5.48,0,0,1,.39-10.26l84-27.8,15.1-36.53L459,1462.1l-13.88,33.57,74,30.58a5.48,5.48,0,0,1-.35,10.27l-84.2,28.23Z"/><path class="cls-2" d="M767.82,1618.22q-3.72,31.62-28.92,51.51t-56.81,16.17q-31.86-3.75-51.65-28.81t-16-56.93q3.72-31.62,28.91-51.51t56.82-16.16q31.62,3.72,51.51,28.91T767.82,1618.22Zm-47.44-5.58a29.06,29.06,0,0,0-6.2-22,29,29,0,0,0-41.31-5,30.43,30.43,0,0,0-5,42.11,29.27,29.27,0,0,0,41.44,4.88A29.13,29.13,0,0,0,720.38,1612.64Z"/><path class="cls-1" d="M691.85,1692a89.65,89.65,0,0,1-10.4-.62c-22.65-2.67-41.26-13-55.31-30.86s-19.84-38.32-17.18-61c2.65-22.48,13.07-41,31-55.17s38.37-20,60.86-17.31,41,13.06,55.18,31,19.95,38.38,17.3,60.86h0c-2.64,22.48-13.06,41.05-31,55.18C727.2,1686,710.27,1692,691.85,1692Zm-1.66-154.59c-15.94,0-30.24,5.14-43.47,15.58-15.75,12.44-24.54,28.09-26.86,47.85-2.35,19.93,2.52,37.23,14.89,52.89s28,24.41,48,26.76c19.76,2.33,37-2.59,52.77-15s24.55-28.09,26.87-47.85h0c2.33-19.76-2.59-37-15-52.78s-28.09-24.54-47.85-26.87A80.26,80.26,0,0,0,690.19,1537.37Zm1.21,107.27a37.08,37.08,0,0,1-4.43-.27,33.63,33.63,0,0,1-23.39-13.2,35.9,35.9,0,0,1,5.86-49.75,34.47,34.47,0,0,1,49.07,5.9,34.43,34.43,0,0,1,7.32,26h0a34.56,34.56,0,0,1-13,23.68A33.4,33.4,0,0,1,691.4,1644.64Zm-.55-59.93A22.55,22.55,0,0,0,676.3,1590a24.94,24.94,0,0,0-4.06,34.47,23.8,23.8,0,0,0,33.68,4,24.65,24.65,0,0,0,3.93-34.37A22.67,22.67,0,0,0,694,1584.9,25.6,25.6,0,0,0,690.85,1584.71Z"/><path class="cls-2" d="M963.06,1672.82l-47.21,7.27q-6.72-43.69-28.94-61.19-14.61-11.45-29.5-9.16l11.94,77.51-47.21,7.27-16.31-105.93-16.44,2.53-7.2-46.74,17.38-2.68q33.12-5.09,62.35,3.63,26,7.79,36.81,22l-6.38-39.89,47.21-7.27Z"/><path class="cls-1" d="M822.14,1700a5.49,5.49,0,0,1-5.42-4.65l-15.48-100.51-11,1.7A5.49,5.49,0,0,1,784,1592l-7.2-46.74a5.48,5.48,0,0,1,4.59-6.25l17.38-2.68c22.77-3.5,44.56-2.23,64.75,3.79,10.92,3.27,20,7.45,27.32,12.46l-3.88-24.24a5.5,5.5,0,0,1,4.58-6.29l47.21-7.27a5.49,5.49,0,0,1,6.26,4.59L968.48,1672a5.49,5.49,0,0,1-4.58,6.25l-47.21,7.27a5.52,5.52,0,0,1-6.26-4.59c-4.24-27.57-13.3-47-26.91-57.71-6.7-5.25-13.21-8-19.77-8.34l11,71.54a5.49,5.49,0,0,1-4.59,6.26L823,1699.94A5.79,5.79,0,0,1,822.14,1700Zm-16.3-116.9a5.48,5.48,0,0,1,5.41,4.65l15.47,100.51,36.37-5.6L852,1610.57a5.49,5.49,0,0,1,4.59-6.25c11.42-1.76,22.77,1.69,33.71,10.27,14.92,11.75,25,31.66,30.07,59.25l36.45-5.61L935,1526.41,898.63,1532l5.51,34.45a5.48,5.48,0,0,1-9.77,4.19c-6.48-8.48-17.92-15.23-34-20.06-18.62-5.55-38.78-6.71-59.94-3.46l-12,1.84,5.53,35.91,11-1.7A6.22,6.22,0,0,1,805.84,1583.1Z"/><path class="cls-2" d="M1177.87,1585l-128.14,62.54-47-96.32-15,7.29L967,1516l143.09-69.84,20.74,42.5-85.21,41.59,5.32,10.89,63.85-31.16,15.64,32-63.86,31.17,5.32,10.89,85.21-41.59Z"/><path class="cls-1" d="M1049.73,1653a5.51,5.51,0,0,1-4.93-3.08l-44.6-91.39-10,4.89a5.48,5.48,0,0,1-7.33-2.52l-20.75-42.5a5.49,5.49,0,0,1,2.53-7.33l143.09-69.84a5.47,5.47,0,0,1,7.33,2.53l20.74,42.49a5.49,5.49,0,0,1-2.52,7.34L1053,1532.76l.51,1,58.93-28.76a5.47,5.47,0,0,1,7.33,2.52l15.64,32a5.49,5.49,0,0,1-2.53,7.33l-58.93,28.76.51,1,80.28-39.18a5.49,5.49,0,0,1,7.34,2.52l20.74,42.5a5.48,5.48,0,0,1-2.53,7.33l-128.13,62.55A5.63,5.63,0,0,1,1049.73,1653Zm-47-107.29a5.49,5.49,0,0,1,4.93,3.08l44.61,91.39,118.28-57.73-15.93-32.64L1074.32,1589a5.47,5.47,0,0,1-7.33-2.52l-5.32-10.89a5.49,5.49,0,0,1,2.53-7.33l58.92-28.76-10.82-22.18-58.93,28.76a5.48,5.48,0,0,1-7.33-2.52l-5.32-10.9a5.47,5.47,0,0,1,2.53-7.33l80.28-39.18-15.93-32.64-133.24,65,15.94,32.64,10-4.89A5.41,5.41,0,0,1,1002.72,1545.7Z"/><path class="cls-1" d="M374,325,307,378q-32.89,26-74.36,21.21t-67.51-37.72q-25.84-32.64-21-74.34t37.5-67.53l67-53,38.38,48.49L220.21,268a37.16,37.16,0,0,0-14.41,26,39.72,39.72,0,0,0,34.34,43.52,36.76,36.76,0,0,0,28.45-7.93l18.09-14.33-29.13-36.79,49-38.77Z"/><path class="cls-2" d="M245.34,405.48A115.93,115.93,0,0,1,232,404.7c-29-3.37-53-16.75-71.17-39.76-18.09-22.85-25.54-49.22-22.15-78.38s16.7-53.12,39.55-71.2l67-53.05a5.51,5.51,0,0,1,7.71.9l38.38,48.49a5.48,5.48,0,0,1-.9,7.7l-66.84,52.91a31.62,31.62,0,0,0-12.36,22.3,34.24,34.24,0,0,0,29.58,37.48,31.22,31.22,0,0,0,24.36-6.79L279,314.38l-25.73-32.5a5.49,5.49,0,0,1,.9-7.7l49-38.77a5.48,5.48,0,0,1,7.7.9l67.51,85.28a5.47,5.47,0,0,1-.9,7.7l-67,53C291,397.73,269.15,405.48,245.34,405.48Zm2.43-231.16L185.06,224c-20.48,16.22-32.41,37.71-35.45,63.88s3.63,49.82,19.85,70.3c16.34,20.65,37.82,32.65,63.84,35.67s49.68-3.72,70.33-20.06l62.7-49.64-60.7-76.68-40.37,32L291,311.87a5.47,5.47,0,0,1-.9,7.7L272,333.89A42.21,42.21,0,0,1,239.46,343a45.21,45.21,0,0,1-39.11-49.58,42.66,42.66,0,0,1,16.45-29.69l62.54-49.5Z"/><path class="cls-1" d="M603,226.45,542.07,250l-16.8-20.16-65.49,25.28,1.14,26.21L400,304.79,393.63,157l-64.36,24.85L307,124.19,466.44,62.63Zm-106.81-32-40.81-48.48,2.43,63.29Z"/><path class="cls-2" d="M400,310.28a5.49,5.49,0,0,1-5.48-5.25L388.48,164.9,331.24,187a5.48,5.48,0,0,1-7.09-3.14l-22.27-57.7A5.44,5.44,0,0,1,302,122a5.51,5.51,0,0,1,3-2.9L464.47,57.51a5.5,5.5,0,0,1,6.19,1.61L607.19,222.93a5.48,5.48,0,0,1-2.24,8.63l-60.9,23.51a5.47,5.47,0,0,1-6.19-1.6l-14.29-17.14-58.14,22.45,1,22.27a5.5,5.5,0,0,1-3.51,5.36L402,309.91A5.38,5.38,0,0,1,400,310.28Zm-6.42-158.73a5.46,5.46,0,0,1,5.48,5.25l6.08,140.13,50.09-19.34-1-22.27a5.5,5.5,0,0,1,3.5-5.36l65.49-25.28a5.49,5.49,0,0,1,6.19,1.61l14.29,17.14,50.1-19.35L464.75,69.16,314.08,127.33l18.33,47.46,59.24-22.87A5.42,5.42,0,0,1,393.62,151.55Zm64.17,63.15a5.49,5.49,0,0,1-5.48-5.28l-2.43-63.29a5.48,5.48,0,0,1,9.67-3.74l40.81,48.47a5.48,5.48,0,0,1-2.22,8.65l-38.38,14.82A5.55,5.55,0,0,1,457.79,214.7Zm3.66-53L463,201.33l24-9.28Z"/><path class="cls-1" d="M851,207.25l-62.39,3-3.26-68.29-43,70.5-49.51-66.08,3.26,68.29-62.39,3-6.69-140-21.73,1-3-61.77,83.67-4L735.79,79,779,8.47l62.4-3Z"/><path class="cls-2" d="M633.74,223.11a5.48,5.48,0,0,1-5.47-5.22L621.84,83.37l-16.25.78a5.47,5.47,0,0,1-5.74-5.22l-3-61.77a5.49,5.49,0,0,1,5.22-5.74l83.66-4a5.46,5.46,0,0,1,4.65,2.18l44.89,59.63,39-63.64A5.44,5.44,0,0,1,778.74,3l62.39-3a5.49,5.49,0,0,1,5.74,5.21L856.51,207a5.49,5.49,0,0,1-5.22,5.74l-62.39,3a5.48,5.48,0,0,1-5.74-5.22l-2.41-50.43L747.07,215.3a5.48,5.48,0,0,1-9.07.43L699.21,164l2.41,50.44a5.49,5.49,0,0,1-5.22,5.74l-62.39,3Zm-6.68-151a5.49,5.49,0,0,1,5.48,5.22L639,211.89l51.44-2.46-3-62.81a5.48,5.48,0,0,1,9.86-3.55l44.66,59.6,38.77-63.58a5.49,5.49,0,0,1,10.17,2.59l3,62.81L845.29,202,836.18,11.23l-54,2.57-41.7,68a5.49,5.49,0,0,1-9.06.43l-48-63.75-75.29,3.6,2.43,50.81,16.25-.77Z"/><path class="cls-1" d="M947.38,227.33l-61.5-10.93,24.53-138L889.3,74.66l10.83-60.89,82.61,14.69Z"/><path class="cls-2" d="M947.38,232.82a5.2,5.2,0,0,1-1-.09l-61.5-10.93a5.49,5.49,0,0,1-4.44-6.36L904.06,82.85l-15.72-2.79a5.49,5.49,0,0,1-4.44-6.36l10.83-60.89a5.48,5.48,0,0,1,6.36-4.44L983.7,23.06a5.49,5.49,0,0,1,4.44,6.36L952.78,228.3a5.49,5.49,0,0,1-5.4,4.52ZM892.24,212l50.7,9L976.38,32.9,904.57,20.13l-8.91,50.09L911.38,73a5.48,5.48,0,0,1,4.43,6.36Z"/><path class="cls-1" d="M1157.36,299.55l-57.91-23.41q21.67-53.58,8.41-88.11-8.76-22.65-27-30l-38.43,95.08L984.5,229.67,1037,99.73l-20.16-8.15L1040,34.24l21.32,8.62Q1102,59.29,1129,88.64q24,26.11,26.66,49.32l19.51-49.09,57.91,23.41Z"/><path class="cls-2" d="M1157.36,305a5.43,5.43,0,0,1-2-.41l-57.91-23.41a5.47,5.47,0,0,1-3-7.13c13.84-34.23,16.65-62.52,8.37-84.09-4.47-11.55-10.72-19.62-19-24.49l-36.23,89.62a5.48,5.48,0,0,1-7.14,3l-57.91-23.41a5.49,5.49,0,0,1-3-7.14l50.47-124.85-15.08-6.1a5.42,5.42,0,0,1-3-2.94,5.51,5.51,0,0,1,0-4.2L1035,32.19a5.48,5.48,0,0,1,7.14-3l21.32,8.62c27.7,11.2,51.13,27.06,69.62,47.15,11.15,12.15,19.07,24,23.67,35.54l13.36-33.63a5.48,5.48,0,0,1,7.15-3.06l57.91,23.41a5.48,5.48,0,0,1,3,7.14l-75.7,187.28a5.5,5.5,0,0,1-5.09,3.43Zm-50.82-32,47.79,19.32,71.6-177.1L1178.22,96l-17.48,44a5.48,5.48,0,0,1-10.54-1.4c-1.65-14.22-10.14-29.78-25.25-46.24-17.37-18.88-39.47-33.82-65.65-44.4l-16.24-6.57L1024,88.55l15.09,6.1a5.49,5.49,0,0,1,3,7.14L991.64,226.64l47.74,19.3,36.38-90a5.48,5.48,0,0,1,7.14-3c13.57,5.49,23.69,16.63,30.07,33.13C1121.86,209.18,1119.69,238.44,1106.54,273.09Z"/><path class="cls-1" d="M1317.3,424.31l-67.16-52.85q-33-25.93-37.92-67.39t21-74.43q25.74-32.73,67.42-37.7t74.4,20.77l67.17,52.85L1404,314.16l-67-52.71a37.12,37.12,0,0,0-28.63-8A39.73,39.73,0,0,0,1274,297a36.74,36.74,0,0,0,14.33,25.82l18.14,14.27,29-36.88,49.09,38.63Z"/><path class="cls-2" d="M1317.29,429.79a5.44,5.44,0,0,1-3.38-1.17l-67.17-52.84c-23.06-18.15-36.51-42.06-40-71.06s4-55.41,22.13-78.47c18-22.9,41.93-36.28,71.08-39.76s55.54,3.9,78.45,21.91l67.16,52.85a5.49,5.49,0,0,1,.92,7.7l-38.24,48.6a5.47,5.47,0,0,1-7.7.92l-67-52.71a31.58,31.58,0,0,0-24.56-6.85,34.25,34.25,0,0,0-29.58,37.48,31.25,31.25,0,0,0,12.27,22.12l13.83,10.87,25.62-32.57a5.49,5.49,0,0,1,7.7-.92l49.09,38.63a5.49,5.49,0,0,1,.92,7.7l-67.25,85.48A5.5,5.5,0,0,1,1317.29,429.79Zm-3.59-233.16a105.13,105.13,0,0,0-12.42.75c-26.15,3.13-47.61,15.12-63.76,35.65-16.29,20.7-23,44.38-19.86,70.39s15.17,47.45,35.87,63.73l62.85,49.46,60.47-76.87-40.47-31.84-25.62,32.57a5.49,5.49,0,0,1-7.7.92l-18.14-14.26a42.21,42.21,0,0,1-16.39-29.53A45.21,45.21,0,0,1,1307.65,248a42.6,42.6,0,0,1,32.7,9.11L1403,306.46l31.46-40L1371.64,217C1354.41,203.47,1335,196.63,1313.7,196.63Z"/><path class="cls-2" d="M802.81,1389.23c-13.73,0-27.9-.59-42.11-1.75-71.23-5.82-127.06-24.22-127.62-24.4a16.47,16.47,0,0,1-10.92-18.88c11.19-55.13,7.39-158.65,5.81-191.54-35.67-19.48-47.23-63.42-55.8-96q-2.22-8.45-5-18c-2,19.59-4,38.52-5.74,50.52-4.76,33.18-33.19,121.23-106.65,130.16a125.45,125.45,0,0,1-15.25.94c-66.65,0-106.71-53.9-122.33-105.19l-6.22-7.35,3.35-2.87c-15.16-58-26-150.44-27.23-232.76-.29-19.69-1-38-1.74-55.71C283,758,281.11,711.89,298.67,676.61c18.07-36.29,18.58-58.63,18.58-58.85a16.32,16.32,0,0,1,8.9-14.59l.39-.2-.24-1a20.06,20.06,0,0,1,10.46-22.7c13.05-6.6,59.11-28.16,104-28.16,3.6,0,7.16.14,10.59.41a20.12,20.12,0,0,1,18,15.33l.28,1.14,1.19,0c.61,0,1.22,0,1.82.1a134.14,134.14,0,0,1,1.63-37.34c5.18-27.95,17.34-46.2,36.14-54.26a54.2,54.2,0,0,1,21.5-4.25,75.08,75.08,0,0,1,21,3.22c3.37-20.05,14.63-47.49,50-57.89a78.71,78.71,0,0,1,22.19-3.4,58.38,58.38,0,0,1,32.06,9.25,72.13,72.13,0,0,1,7.69-13.18c14.23-19.4,38.1-32.18,65.5-35.08a58.16,58.16,0,0,1,6.21-.33c14.61,0,29.58,5.4,41.47,14.71,6.9-17.26,18.75-31.52,33.61-39.84A69.2,69.2,0,0,1,846,341c11.37,0,23.33,2.47,35.56,7.35,46,18.32,41.4,70.09,32,113.52a12.93,12.93,0,0,1,1.15-.64c.63-.32,1.27-.64,1.92-.95l-.45-1.85a20.13,20.13,0,0,1,9-21.88c40.9-25.37,98-27.74,114.57-27.86a20.22,20.22,0,0,1,19.7,15.38l.51,2.09a16.39,16.39,0,0,1,14.1,8.92c.49.89,11.39,20.23,43.46,43.75,31.78,23.31,51.25,65.11,75.88,118,7.51,16.13,15.27,32.78,24.06,50.46,37.88,76.14,71.53,166.58,83.73,225,11.9,57-.23,133.2-73.59,160.41a94.27,94.27,0,0,1-32.93,5.92h0c-55.17,0-103.6-47.57-121.5-72.71-1.34-1.88-2.83-4-4.5-6.46-30,38.11-51.6,69.48-61.44,89.16a115.89,115.89,0,0,1-37.46,43.54,74.08,74.08,0,0,1-6.1,5.49c3.2,52.15,24.24,162,36.58,220.6a16.51,16.51,0,0,1-6.29,16.6C945.37,1371,881.07,1389.23,802.81,1389.23Z"/><path class="cls-1" d="M1290.42,874.62c-12-57.64-45.32-147-82.82-222.41-8.86-17.81-16.65-34.54-24.18-50.71-24-51.5-42.91-92.17-72.43-113.82-35.48-26-46.6-47.33-46.7-47.52a5.48,5.48,0,0,0-4.9-3h0c-.58,0-3.41,0-8,.24l-2.6-10.71a9.24,9.24,0,0,0-9-7c-15.81.12-70.4,2.36-108.86,26.22a9.18,9.18,0,0,0-4.11,10l2.56,10.54c-3.26,1.48-6.52,3-9.77,4.64a5.53,5.53,0,0,0-2,8.12s2.4,3.51,1.34,6.34c-1,2.65-5,4.93-11.19,6.45l-13.45,3.25c.89-3.77,1.86-7.72,2.87-11.82,11.09-44.94,26.29-106.48-19.74-124.84-22.58-9-43.46-8.74-60.4.74-17.1,9.57-29.6,28.58-33.43,50.84-.06.39-.12.77-.19,1.16a56.39,56.39,0,0,0-6.68-8.24c-11.92-12.15-29.24-18.65-45.19-17h0c-24.34,2.58-45.41,13.76-57.81,30.66a58.82,58.82,0,0,0-10.91,26.16C652.72,431,635,419.6,606.06,428.1c-38,11.18-43.33,45.4-43.47,62.74-11.06-5.19-30.47-11.71-47.84-4.26-15.22,6.52-25.21,22.06-29.67,46.18a124.94,124.94,0,0,0,3.67,59.86c-5.05.93-8.77.56-10.59-1.09-2.23-2-1.72-6.2-1.72-6.2A5.49,5.49,0,0,0,471,579c-3.32,0-6.6.16-9.86.31l-2.39-9.81a9.16,9.16,0,0,0-8.22-7c-45.12-3.59-94.66,19.46-108.77,26.6A9.12,9.12,0,0,0,337,599.42l2.34,9.64c-4.76,2.14-7.6,3.59-8.11,3.85a5.53,5.53,0,0,0-3,4.92c0,.24-.12,24.27-19.72,63.66-16.31,32.77-14.5,77.61-12.2,134.37.72,17.82,1.47,36.25,1.76,56.14,1.23,84.19,12.62,178.89,28.35,235.63.1.37.22.75.32,1.12l-.34.29.64.71c13.9,47.83,51,99.62,112.49,99.61a115.43,115.43,0,0,0,13.93-.86c66.62-8.1,92.69-90,97.11-120.83,2-14.12,4.49-38.27,6.87-61.62,1.5-14.64,3-29.58,4.3-40.54,7.26,21.37,15.23,46.25,21,68.38,8.81,33.48,20.11,76.35,55.82,91.76,1.21,22.75,6.65,139.93-5.69,200.73a5.47,5.47,0,0,0,3.64,6.29c.54.19,55.12,18.16,125,23.88,12.82,1,26.68,1.71,41.22,1.71,59.05,0,129.13-11,184.56-52.14a5.48,5.48,0,0,0,2.1-5.53c-13.19-62.6-35.23-178.69-37.1-228.19a63.29,63.29,0,0,0,10.28-8.61,104.2,104.2,0,0,0,34.72-40c13.37-26.73,43.77-67.62,72-102.79,4.85,7.29,9.23,13.74,12.71,18.63,18.08,25.41,78.78,86.22,141.7,62.88C1290.57,997.72,1301.43,927.35,1290.42,874.62Z"/><path class="cls-2" d="M643.86,1141.45s8.36,137.35-5.58,206c0,0,214.74,71.54,345.82-25.75,0,0-44.62-211.75-36.25-249C947.85,1072.77,713.58,1035.57,643.86,1141.45Z"/><path class="cls-1" d="M802.81,1378.26c-14.54,0-28.4-.67-41.22-1.72-69.92-5.71-124.5-23.68-125-23.87a5.47,5.47,0,0,1-3.64-6.29c13.64-67.18,5.56-203.23,5.47-204.6a5.53,5.53,0,0,1,.9-3.35c29.92-45.43,91.29-71.17,182.4-76.5,67.1-3.92,126.43,5.33,127,5.43a5.47,5.47,0,0,1,4.49,6.61c-6.41,28.51,20.92,173.78,36.27,246.62a5.48,5.48,0,0,1-2.1,5.53C931.94,1367.26,861.86,1378.26,802.81,1378.26Zm-158.22-34.57a599,599,0,0,0,118.14,21.94c62,5,149.32,1,215.28-46.26-5.69-27.3-40.14-195.46-36.34-241.93-34.79-4.59-229.86-25.75-292.23,65.53C650.41,1159.85,656.55,1277.54,644.59,1343.69Z"/><path class="cls-2" d="M548.33,931.68s25.81,67.82,39.75,120.81,30.15,99.45,91.77,93,61.62-42.75,111.82-48.33,133.43,23.54,169.9-20.3,78.31-225.12,56-289.26S547.62,810.87,548.33,931.68Z"/><path class="cls-1" d="M669,1151.52c-60.57,0-75.31-56.06-86.25-97.63-13.71-52.09-39.32-119.58-39.58-120.26a5.44,5.44,0,0,1-.35-1.92c-.21-35.21,34.31-70.29,99.81-101.45,53.7-25.55,126.1-47.36,198.63-59.83,80.34-13.81,170.2-17,181.46,15.32,10.38,29.85,8.23,87.86-5.77,155.16-13.11,63.07-33.2,117.79-51.19,139.41-26.8,32.2-76.14,27.82-119.67,24-19.82-1.76-38.54-3.41-53.85-1.71-22.25,2.47-33.57,11.07-46.68,21-14.62,11.11-31.19,23.71-65.17,27.29A108.2,108.2,0,0,1,669,1151.52ZM553.82,930.69c3.2,8.49,26.61,71.16,39.57,120.41,14.2,54,29.55,94.83,85.88,88.89,30.93-3.26,45.55-14.37,59.68-25.11,13.2-10,26.85-20.41,52.11-23.22,16.4-1.82,35.65-.11,56,1.7,42.84,3.8,87.15,7.73,110.27-20.06,36.4-43.75,76-223.7,55-283.95-6.07-17.45-66.15-25.84-169.24-8.11C703.29,805.29,554.89,865.74,553.82,930.69Z"/><path class="cls-2" d="M344.54,615.15l-4-16.6a5.5,5.5,0,0,1,2.86-6.2c13.87-7,62.61-29.72,106.83-26.22a5.53,5.53,0,0,1,5,4.2l3.24,13.36S345,617,344.54,615.15Z"/><path class="cls-1" d="M344.47,618.8a2.9,2.9,0,0,1-1.72-.44l-1.36-.79L341,616l-4-16.6a9.12,9.12,0,0,1,4.76-10.33c14.11-7.15,63.66-30.18,108.77-26.6a9.16,9.16,0,0,1,8.22,7l4.07,16.75-3.35,1c-.28.08-28.25,8.28-56.13,16.23C358.32,616.25,347.79,618.8,344.47,618.8Zm96.25-49.38c-40.62,0-83,19.75-95.7,26.19a1.84,1.84,0,0,0-.95,2.08l3.25,13.41c13.32-3,69.3-19,106.71-29.93l-2.42-10a1.87,1.87,0,0,0-1.7-1.41C446.87,569.54,443.8,569.42,440.72,569.42Z"/><path class="cls-2" d="M1049.23,444.12l-4-16.6a5.48,5.48,0,0,0-5.38-4.2c-15.54.12-69.27,2.28-107,25.67a5.55,5.55,0,0,0-2.48,6l3.25,13.37S1049.67,445.93,1049.23,444.12Z"/><path class="cls-1" d="M930.89,472.61l-4.07-16.75a9.18,9.18,0,0,1,4.11-10c38.45-23.85,93.05-26.1,108.87-26.22h.06a9.1,9.1,0,0,1,8.89,7l4.4,18.12-.85,1.37c-1.16,1.79-1.69,2.62-60.67,14.49-28.42,5.72-57,11.25-57.32,11.31Zm109-45.63h0c-15.34.11-68.23,2.26-105.07,25.12a1.85,1.85,0,0,0-.85,2l2.42,10c38.26-7.41,95.37-18.82,108.55-22.3l-3.25-13.41A1.83,1.83,0,0,0,1039.86,427Z"/><path class="cls-2" d="M1202.69,654.65c-37.36-75.11-57.7-135.23-94.94-162.55s-48.36-49.48-48.36-49.48-70.8,0-137.33,33.32c0,0,11.4,15.41-13,21.34-20.72,5-160.69,38.86-202.63,48.08.44,1.81-189.69,46.18-214.08,52.09s-21.34-13-21.34-13c-74.41.84-137.32,33.33-137.32,33.33s.28,24.8-20.3,66.15-11.08,104.09-9.86,188,12.75,178.67,28.15,234.25,57.91,104.57,121.1,96.89,88.08-86.43,92.35-116.17S555.79,981,558.57,968.83c1.4-6.08,9.92-15.32,9.92-15.32s32.75,19,69.79,10c50.6-12.28,66.32-47.35,66.32-47.35l76.79-18.63.22.9,84.93-20.61s36.43,25.28,87,13c34.33-8.34,51.06-42.21,51.06-42.21s11.81,4.31,15.83,9.07c8.06,9.53,48.65,74.29,66.07,98.77s75.64,83,135.32,60.91,75-85.17,63.21-141.63S1240.06,729.77,1202.69,654.65Z"/><path class="cls-1" d="M439.52,1209.36c-62.35,0-99.69-53.32-113.11-101.73C310.68,1050.89,299.29,956.2,298.06,872c-.29-19.89-1-38.32-1.76-56.15-2.3-56.76-4.11-101.59,12.2-134.36,19.6-39.39,19.72-63.42,19.72-63.66a5.51,5.51,0,0,1,3-4.92C333.8,611.56,396.11,579.82,471,579a5.49,5.49,0,0,1,5.48,6.36h0s-.51,4.17,1.72,6.2,6.68,2.11,12.9.6c5.45-1.33,19.16-4.56,37.16-8.82,54-12.75,165.52-39.1,175.36-42.63a5.5,5.5,0,0,1,1.68-.68C744.67,531.35,875,499.89,907.77,492c6.23-1.52,10.21-3.8,11.2-6.45,1-2.83-1.32-6.3-1.35-6.34a5.53,5.53,0,0,1,2-8.12c66.78-33.49,136.56-33.91,139.76-33.91a5.37,5.37,0,0,1,4.92,3c.1.19,11.22,21.5,46.71,47.52,29.51,21.65,48.45,62.32,72.42,113.82,7.53,16.17,15.32,32.9,24.18,50.71h0c37.5,75.39,70.78,164.77,82.82,222.41,11,52.73.15,123.1-66.67,147.89-62.92,23.34-123.62-37.47-141.7-62.88-8.27-11.62-21.54-32-34.36-51.63-13.47-20.64-27.39-42-31.42-46.77-1.49-1.76-5.53-4-9.25-5.69-6.08,10-23.13,33.57-52.17,40.62-46,11.16-80.49-7.09-89.3-12.45l-82.64,20.06a5.39,5.39,0,0,1-3.19-.19l-71.39,17.33c-4.77,8.64-23.47,37-68.75,47.94-31.4,7.62-59.48-3.53-69.75-8.47-2.65,3.31-5.37,7.32-5.91,9.68-1.4,6.1-4,31.45-6.48,56-2.39,23.36-4.85,47.52-6.88,61.64-4.42,30.87-30.49,112.73-97.11,120.83A115.43,115.43,0,0,1,439.52,1209.36ZM339,621.29c-.66,8.48-4,31.53-20.71,65.09-15.05,30.25-13.29,73.84-11.05,129,.72,17.89,1.47,36.4,1.77,56.43,1.21,83.35,12.45,176.93,28,232.87,13.22,47.71,51.32,100.67,115.15,92.91,59.77-7.27,83.48-83,87.58-111.5,2-13.91,4.44-37.95,6.81-61.21,2.77-27.12,5.16-50.54,6.71-57.3,1.64-7.14,9.64-16.09,11.23-17.81a5.48,5.48,0,0,1,6.78-1c.3.17,31.4,17.76,65.75,9.42,47.13-11.44,62-42.94,62.61-44.28a5.53,5.53,0,0,1,3.71-3.07l76.78-18.63a5.47,5.47,0,0,1,3.19.18l82-19.89a5.49,5.49,0,0,1,4.42.82c.34.23,35.19,23.69,82.6,12.18,31.34-7.61,47.29-39,47.45-39.32a5.48,5.48,0,0,1,6.79-2.71c2.2.8,13.41,5.09,18.15,10.68,4.47,5.3,17.33,25,32.22,47.86,12.77,19.58,26,39.82,34.12,51.27,16.72,23.49,72.49,79.88,128.94,59,60.29-22.37,69.87-86.9,59.75-135.36-11.86-56.82-44.78-145.14-81.9-219.77h0c-8.92-17.94-16.74-34.74-24.3-51-23.31-50.07-41.73-89.62-69-109.6-30.23-22.18-43.77-41.13-48.24-48.36-13.88.47-71.6,4-126.92,30.32a16.47,16.47,0,0,1-.06,10.71c-2.33,6.41-8.7,10.92-18.93,13.4-32.74,7.95-162.92,39.36-202.6,48.08-5.23,2.08-19.92,5.78-65.57,16.79-36.33,8.77-79.75,19-111.45,26.52-18,4.24-31.65,7.47-37.09,8.8-10.23,2.48-18,1.39-23-3.24a16.49,16.49,0,0,1-5-9.49C404.49,592,351.57,615.35,339,621.29Zm362.33-78a5.42,5.42,0,0,0-.25,3.33A5.57,5.57,0,0,1,701.35,543.31Z"/><path class="cls-1" d="M335.66,673a119.62,119.62,0,0,1,62.84-36.28,129.55,129.55,0,0,1,18.44-2.62,131,131,0,0,1,18.69.15,125.09,125.09,0,0,1,18.51,3A136,136,0,0,1,472,643.13a125.76,125.76,0,0,1,57.43,47.48,125.95,125.95,0,0,1-3.6,142.91,125,125,0,0,1-59.73,44.54A116.9,116.9,0,0,1,448,882.9l-4.61.87-4.66.55c-1.56.17-3.11.4-4.66.5l-4.69.2a125.34,125.34,0,0,1-37-4.24,121.9,121.9,0,0,1-60.95-39.44,126.93,126.93,0,0,0,62.24,34.21,122.32,122.32,0,0,0,69.5-5.52,121,121,0,0,0,30.33-17.28,117.5,117.5,0,0,0,23.91-25.27,118.58,118.58,0,0,0-19.31-157.69A124.13,124.13,0,0,0,468.65,651,120.66,120.66,0,0,0,399.52,642a125.47,125.47,0,0,0-63.86,31Z"/><path class="cls-1" d="M1078.29,496.11a118.45,118.45,0,0,0-17.24-3.34,116.73,116.73,0,0,0-17.41-.87,118.06,118.06,0,0,0-34,5.87,115.65,115.65,0,0,0-55.22,38.6,119.76,119.76,0,0,0-16.74,29.33,110.12,110.12,0,0,0-5,16.12,107.7,107.7,0,0,0-2.56,16.65,115.62,115.62,0,0,0,13.73,64.93A114.27,114.27,0,0,0,991,710.05a113.1,113.1,0,0,0,31.66,11.3,117,117,0,0,0,33.7,1.54,117.17,117.17,0,0,0,62.13-26.07,123,123,0,0,0,38.19-57.12A117.92,117.92,0,0,1,1122,700.87,119.92,119.92,0,0,1,1092.12,721L1088,723c-1.4.6-2.83,1.1-4.24,1.65l-4.26,1.59-4.36,1.3a111.32,111.32,0,0,1-17.79,3.89c-24.14,3.51-49.35-1-71.19-12.12a123.85,123.85,0,0,1-52-50.62,125.25,125.25,0,0,1-14.41-71.1,122.33,122.33,0,0,1,28-66.55,132.73,132.73,0,0,1,12.74-13,122.94,122.94,0,0,1,14.54-10.89,128.28,128.28,0,0,1,16-8.49,126.49,126.49,0,0,1,17-6,115.48,115.48,0,0,1,53.19-1.49A119.25,119.25,0,0,1,1078.29,496.11Z"/><path class="cls-1" d="M527.72,881.13A80.06,80.06,0,0,1,523.67,847a85.25,85.25,0,0,1,10.57-33.5,87.52,87.52,0,0,1,23.45-26.78,89.05,89.05,0,0,1,32.37-15.34l8.86-1.65c3-.33,6-.54,9-.79,3,0,6,.11,9,.16,3,.25,6,.69,8.94,1.07A87.42,87.42,0,0,1,659,783.23a85.21,85.21,0,0,1,24.75,24.93,79.75,79.75,0,0,1,12,32.19,95.05,95.05,0,0,0-16.37-29,88.69,88.69,0,0,0-24.9-20.75,86.31,86.31,0,0,0-30.24-10.13,84.87,84.87,0,0,0-60.43,14.65A86.44,86.44,0,0,0,541.58,818,88.65,88.65,0,0,0,529,847.84,94.91,94.91,0,0,0,527.72,881.13Z"/><path class="cls-1" d="M703.39,861.62A79.94,79.94,0,0,1,707,895.79a85.12,85.12,0,0,1-11,33.36,87.38,87.38,0,0,1-23.78,26.49,89.18,89.18,0,0,1-32.56,14.93l-8.88,1.54c-3,.3-6,.46-9,.67-3,0-6-.18-9-.27-3-.28-6-.76-8.93-1.17a87.48,87.48,0,0,1-33-13.47,85.21,85.21,0,0,1-24.44-25.25,79.78,79.78,0,0,1-11.63-32.33,95.13,95.13,0,0,0,16,29.21,88.69,88.69,0,0,0,24.64,21.06,86.37,86.37,0,0,0,30.1,10.52,84.9,84.9,0,0,0,60.62-13.9,86.39,86.39,0,0,0,22.52-22.59,88.73,88.73,0,0,0,13-29.69A95,95,0,0,0,703.39,861.62Z"/><path class="cls-1" d="M844.34,827.41a95,95,0,0,0,16.73,28.81,88.52,88.52,0,0,0,25.15,20.44,86.51,86.51,0,0,0,30.37,9.76A85,85,0,0,0,976.84,871a86.39,86.39,0,0,0,21.93-23.15,88.53,88.53,0,0,0,12.24-30,95,95,0,0,0,.84-33.3,79.9,79.9,0,0,1,4.49,34.07,85.29,85.29,0,0,1-10.15,33.64,87.52,87.52,0,0,1-23.11,27.07c-2.44,1.73-4.87,3.52-7.39,5.13s-5.21,3-7.89,4.38c-2.76,1.18-5.51,2.42-8.3,3.53l-8.6,2.7a89,89,0,0,1-35.78,1.65,87.65,87.65,0,0,1-33.28-12.63,85.38,85.38,0,0,1-25.06-24.62A79.9,79.9,0,0,1,844.34,827.41Z"/><path class="cls-1" d="M840.32,805.27a79.92,79.92,0,0,1-4.05-34.12,85.19,85.19,0,0,1,10.57-33.51,87.59,87.59,0,0,1,23.44-26.77,89.15,89.15,0,0,1,32.37-15.35l8.86-1.65c3-.33,6-.53,9-.78,3-.05,6,.1,9,.16,3,.24,6,.68,8.94,1.06a87.42,87.42,0,0,1,33.12,13.05,85.12,85.12,0,0,1,24.76,24.93,80.15,80.15,0,0,1,12,32.19,95.2,95.2,0,0,0-16.38-29,88.86,88.86,0,0,0-24.9-20.75,86.19,86.19,0,0,0-30.23-10.13,84.82,84.82,0,0,0-60.44,14.66,86.25,86.25,0,0,0-22.23,22.87A88.53,88.53,0,0,0,841.56,772,95,95,0,0,0,840.32,805.27Z"/><path class="cls-1" d="M612.16,934.55a71.61,71.61,0,0,1-69.37-54.68h0a71.53,71.53,0,1,1,86.37,52.63A72,72,0,0,1,612.16,934.55Zm.25-135.79a64.59,64.59,0,0,0-15.26,1.84,63.8,63.8,0,1,0,15.26-1.84Z"/><path class="cls-1" d="M612.2,913.16a50.17,50.17,0,0,1-48.63-38.34h0a50.14,50.14,0,1,1,60.55,36.9A50.53,50.53,0,0,1,612.2,913.16Zm.09-93a42.83,42.83,0,0,0-41.62,52.93h0a42.83,42.83,0,1,0,41.62-52.93Z"/><path class="cls-1" d="M579.47,871a31.87,31.87,0,0,1,2.16-26.66,34.29,34.29,0,0,1,9.21-10.68,34.67,34.67,0,0,1,27-6.57A34.31,34.31,0,0,1,631,832.33,31.86,31.86,0,0,1,645.12,855a36.42,36.42,0,0,0-16.36-19,33.24,33.24,0,0,0-43.49,10.55A36.36,36.36,0,0,0,579.47,871Z"/><path class="cls-1" d="M634.82,854.66a22.06,22.06,0,0,1-1,19.16,24.67,24.67,0,0,1-35.73,8.67,22,22,0,0,1-9.65-16.57,26.49,26.49,0,0,0,11.88,12.92,23.4,23.4,0,0,0,29.86-7.24A26.49,26.49,0,0,0,634.82,854.66Z"/><path class="cls-1" d="M946.81,778.94a22,22,0,0,1-1,19.15,24.66,24.66,0,0,1-35.73,8.68,22,22,0,0,1-9.66-16.57,26.6,26.6,0,0,0,11.89,12.92,23.39,23.39,0,0,0,29.86-7.24A26.49,26.49,0,0,0,946.81,778.94Z"/><path class="cls-1" d="M667.24,851.58a52.78,52.78,0,0,1,2.23,22.07,55.47,55.47,0,0,1-7,21.45,56.68,56.68,0,0,1-15.11,17.09,56.88,56.88,0,0,1-43.65,10.6,56.81,56.81,0,0,1-21.26-8.26,55.46,55.46,0,0,1-16.08-15.85A52.75,52.75,0,0,1,558.22,878a58.63,58.63,0,0,0,26.44,32.84,55.49,55.49,0,0,0,74.15-18A58.62,58.62,0,0,0,667.24,851.58Z"/><path class="cls-1" d="M891.46,795.24a31.85,31.85,0,0,1,2.16-26.65,34.29,34.29,0,0,1,9.21-10.68,34.67,34.67,0,0,1,27-6.57A34.31,34.31,0,0,1,943,756.61a31.86,31.86,0,0,1,14.14,22.7,36.4,36.4,0,0,0-16.37-19,33.23,33.23,0,0,0-43.48,10.55A36.34,36.34,0,0,0,891.46,795.24Z"/><path class="cls-1" d="M979.23,775.86a52.78,52.78,0,0,1,2.23,22.07,55.53,55.53,0,0,1-7,21.45,56.8,56.8,0,0,1-15.11,17.09,56.88,56.88,0,0,1-43.65,10.6,56.81,56.81,0,0,1-21.26-8.26A55.46,55.46,0,0,1,878.34,823a53,53,0,0,1-8.13-20.65,58.68,58.68,0,0,0,26.44,32.84,55.47,55.47,0,0,0,74.15-18A58.67,58.67,0,0,0,979.23,775.86Z"/><path class="cls-1" d="M924.89,858.66a71.52,71.52,0,1,1,69.5-88.4h0a71.54,71.54,0,0,1-69.5,88.4ZM925,722.9a64.58,64.58,0,0,0-15.26,1.83A63.94,63.94,0,1,0,925,722.9Z"/><path class="cls-1" d="M924.79,837.29a50.15,50.15,0,1,1,48.82-62h0a50.15,50.15,0,0,1-36.9,60.55A50.46,50.46,0,0,1,924.79,837.29Zm.17-93a42.87,42.87,0,0,0-41.7,52.94A42.83,42.83,0,1,0,966.5,777h0A42.86,42.86,0,0,0,925,744.29Z"/><path class="cls-1" d="M700.56,545.09V545l-1.22.34-1.22.26a.35.35,0,0,1,0,.07c-19.16,5.26-146.1,40-145,38l31.8,131a44.07,44.07,0,0,0,16.92,25.5h0a35.81,35.81,0,0,0,28,6.29l223.49-54.24a35.8,35.8,0,0,0,22-18.42h0a44.06,44.06,0,0,0,3.36-30.42l-31.8-131C848.76,513.68,720,541,700.56,545.09Z"/><path class="cls-2" d="M866.49,640.6a32.68,32.68,0,0,1,.4,20A27.79,27.79,0,0,1,854,677a26,26,0,0,1-2.5,1.19c-.43.18-.91.33-1.36.5s-.81.24-1.22.37l-4.75,1.38-9.5,2.76c-6.33,1.86-12.71,3.55-19.06,5.33-12.7,3.6-25.5,6.83-38.25,10.23l-38.41,9.63q-38.48,9.39-77.23,17.51c-6.46,1.33-12.91,2.73-19.38,4l-9.71,1.9-4.86.94c-.42.08-.77.17-1.25.24s-1,.13-1.44.17a23.24,23.24,0,0,1-2.77.09,27.76,27.76,0,0,1-19-8.68,32.63,32.63,0,0,1-8.81-18,33.81,33.81,0,0,0,10.85,15.7c4.91,3.9,11,6.1,16.86,5.54.73-.07,1.45-.15,2.16-.28.36-.06.67-.15,1-.22s.77-.21,1.16-.32l4.75-1.38,9.51-2.77c6.33-1.85,12.7-3.55,19-5.33q38.15-10.49,76.54-19.81l38.47-9c12.87-2.82,25.7-5.81,38.63-8.43,6.46-1.33,12.9-2.74,19.38-4l9.72-1.9,4.85-.95c.39-.08.85-.16,1.18-.24s.65-.17,1-.28c.69-.21,1.37-.46,2.05-.73,5.44-2.19,9.87-7,12.45-12.67A33.88,33.88,0,0,0,866.49,640.6Z"/><path class="cls-1" d="M537.16,655.46h0a14.52,14.52,0,0,1-17.53-10.68l-5.87-24.19a14.52,14.52,0,0,1,10.68-17.53h0A14.52,14.52,0,0,1,542,613.74l5.87,24.19A14.52,14.52,0,0,1,537.16,655.46Z"/><path class="cls-2" d="M526.86,643,521,618.84a7.08,7.08,0,0,1,5.21-8.55h0a7.08,7.08,0,0,1,8.55,5.21l5.87,24.19a7.07,7.07,0,0,1-5.21,8.54h0A7.06,7.06,0,0,1,526.86,643Z"/><path class="cls-1" d="M895.62,568.46h0a14.52,14.52,0,0,0,10.68-17.53l-5.87-24.19a14.52,14.52,0,0,0-17.53-10.68h0a14.52,14.52,0,0,0-10.68,17.53l5.87,24.19A14.52,14.52,0,0,0,895.62,568.46Z"/><path class="cls-1" d="M369.2,804.19a32,32,0,0,1-31.06-24.42h0a32,32,0,0,1,23.52-38.6l14.87-3.61a12,12,0,0,1,9.85,1.94L407.75,755a12,12,0,0,1,3.76,14.92l-11.22,23.19a12,12,0,0,1-8,6.42l-15.6,3.79A32,32,0,0,1,369.2,804.19Zm-24-26.15A24.68,24.68,0,0,0,375,796.18l15.6-3.78a4.69,4.69,0,0,0,3.1-2.51l11.22-23.18a4.67,4.67,0,0,0-1.46-5.82l-21.38-15.47a4.64,4.64,0,0,0-3.84-.75l-14.87,3.61A24.65,24.65,0,0,0,345.24,778Z"/><path class="cls-1" d="M464.35,781.67a11.93,11.93,0,0,1-7.18-2.4l-20.6-15.46a12,12,0,0,1-3.5-15L445,725.28a12,12,0,0,1,7.87-6.24l14.87-3.61A32,32,0,0,1,506.31,739h0a32,32,0,0,1-23.52,38.6l-15.6,3.78A12,12,0,0,1,464.35,781.67Zm10.9-59.83a24.16,24.16,0,0,0-5.81.7l-14.88,3.61a4.65,4.65,0,0,0-3.06,2.43l-11.91,23.54A4.66,4.66,0,0,0,441,758l20.6,15.46a4.62,4.62,0,0,0,3.9.81l15.6-3.79a24.67,24.67,0,0,0,18.14-29.76h0A24.69,24.69,0,0,0,475.25,721.84Z"/><path class="cls-1" d="M416.91,749.85a12,12,0,0,1-5.22-1.2L388.5,737.43a12,12,0,0,1-6.42-8l-3.79-15.6a32,32,0,0,1,23.52-38.6h0a32,32,0,0,1,38.6,23.52L444,713.67a12,12,0,0,1-1.94,9.85l-15.47,21.37A12,12,0,0,1,416.91,749.85Zm-13.37-67.47a24.67,24.67,0,0,0-18.14,29.76l3.78,15.6a4.69,4.69,0,0,0,2.51,3.1l23.19,11.23a4.67,4.67,0,0,0,5.81-1.47l15.47-21.37a4.65,4.65,0,0,0,.75-3.84l-3.61-14.87a24.65,24.65,0,0,0-29.76-18.14Z"/><path class="cls-1" d="M393.37,724.79c-1.45-3.41-2.66-6.88-3.89-10.35a28.73,28.73,0,0,1-1.46-5.59,19.62,19.62,0,0,1,.12-6,23.61,23.61,0,0,1,.68-3,22.67,22.67,0,0,1,4.62-7.92A22.17,22.17,0,0,1,404,685.6a21.31,21.31,0,0,1,25.24,12.59,25.92,25.92,0,0,1,1.38,5.66c.5,3.64,1,7.28,1.28,11-1.45-3.41-2.66-6.88-3.89-10.35a24.76,24.76,0,0,0-2-4.75,20.76,20.76,0,0,0-3-3.92,18.27,18.27,0,0,0-30.66,7.93,18.19,18.19,0,0,0-.72,4.89,25.9,25.9,0,0,0,.5,5.18C392.58,717.46,393.1,721.1,393.37,724.79Z"/><path class="cls-1" d="M412.37,803.08c1.45,3.41,2.66,6.88,3.89,10.35a26.88,26.88,0,0,0,1.94,4.83,18.87,18.87,0,0,0,2.87,4,18.26,18.26,0,0,0,30.89-7,20.73,20.73,0,0,0,.87-4.86,24.25,24.25,0,0,0-.39-5.14c-.5-3.65-1-7.29-1.28-11,1.45,3.41,2.67,6.88,3.9,10.35a26.48,26.48,0,0,1,1.36,5.66,21.76,21.76,0,0,1-.31,6,21.5,21.5,0,0,1-16.35,16.74,22,22,0,0,1-20-5.73,24,24,0,0,1-2-2.33,19.4,19.4,0,0,1-2.86-5.29,27.2,27.2,0,0,1-1.27-5.64C413.16,810.41,412.65,806.77,412.37,803.08Z"/><path class="cls-1" d="M456.65,730.42c3.41-1.45,6.88-2.66,10.35-3.89a28.54,28.54,0,0,1,5.59-1.46,19.55,19.55,0,0,1,6,.12,25.67,25.67,0,0,1,3,.68,21.14,21.14,0,0,1,2.83,1.18,21.44,21.44,0,0,1,11.43,14,21.31,21.31,0,0,1-12.59,25.24,25.92,25.92,0,0,1-5.66,1.38c-3.64.5-7.28,1-11,1.28,3.41-1.45,6.88-2.66,10.35-3.89a24.14,24.14,0,0,0,4.75-2,21.09,21.09,0,0,0,3.92-3,18.26,18.26,0,0,0-7.94-30.66,18.05,18.05,0,0,0-4.88-.72,25.9,25.9,0,0,0-5.18.5C464,729.64,460.34,730.15,456.65,730.42Z"/><path class="cls-1" d="M378.36,749.42c-3.41,1.45-6.88,2.67-10.35,3.89a26.88,26.88,0,0,0-4.83,1.94,18.62,18.62,0,0,0-4,2.87,18.26,18.26,0,0,0,7,30.89,20.73,20.73,0,0,0,4.86.87,24.25,24.25,0,0,0,5.14-.39c3.65-.5,7.29-1,11-1.28-3.41,1.45-6.89,2.66-10.35,3.89a25.9,25.9,0,0,1-5.66,1.37,21.43,21.43,0,0,1-22.76-16.67,22.16,22.16,0,0,1,.81-12.26,21.36,21.36,0,0,1,2.94-5.39,22.25,22.25,0,0,1,2-2.34,24,24,0,0,1,2.33-2,19.71,19.71,0,0,1,5.29-2.87,28.5,28.5,0,0,1,5.64-1.26C371,750.21,374.67,749.7,378.36,749.42Z"/><path class="cls-1" d="M435.09,844.35A32,32,0,0,1,404,819.93l-3.78-15.6a11.93,11.93,0,0,1,2.06-10l15.46-20.61a12,12,0,0,1,15-3.5l23.54,11.91a11.94,11.94,0,0,1,6.24,7.86l3.61,14.88a32,32,0,0,1-23.52,38.59h0A31.53,31.53,0,0,1,435.09,844.35Zm-7.74-68.12a4.65,4.65,0,0,0-3.73,1.86L408.16,798.7a4.65,4.65,0,0,0-.81,3.9l3.79,15.6a24.68,24.68,0,0,0,29.77,18.14h0a24.69,24.69,0,0,0,18.14-29.77l-3.61-14.87a4.69,4.69,0,0,0-2.44-3.07l-23.54-11.9A4.67,4.67,0,0,0,427.35,776.23Z"/><path class="cls-1" d="M387.09,671.32a2.74,2.74,0,0,1-2.54-3.78l8.5-20.66a2.75,2.75,0,0,1,4.31-1l17,14.47a2.74,2.74,0,0,1-1.13,4.75l-25.53,6.2A2.79,2.79,0,0,1,387.09,671.32Zm9.6-18.87-5,12.2L406.73,661Z"/><path class="cls-1" d="M449.44,872.55a2.77,2.77,0,0,1-1.78-.65l-17-14.47a2.73,2.73,0,0,1-.89-2.72,2.76,2.76,0,0,1,2-2l25.52-6.19a2.74,2.74,0,0,1,3.18,3.71L452,870.85a2.73,2.73,0,0,1-1.88,1.62A3,3,0,0,1,449.44,872.55Zm-11.15-15.82,10,8.54,5-12.19Z"/><path class="cls-1" d="M517.32,752.11a2.78,2.78,0,0,1-2.66-2.1l-6.2-25.52a2.74,2.74,0,0,1,3.71-3.18l20.66,8.49a2.74,2.74,0,0,1,1,4.32l-14.47,17A2.76,2.76,0,0,1,517.32,752.11Zm-2.26-23.68,3.66,15.06,8.54-10Z"/><path class="cls-1" d="M332.37,797a2.71,2.71,0,0,1-1-.2l-20.66-8.5a2.73,2.73,0,0,1-1.05-4.31l14.47-17a2.73,2.73,0,0,1,4.75,1.12L335,793.6a2.75,2.75,0,0,1-.88,2.73A2.72,2.72,0,0,1,332.37,797Zm-16.13-12.34,12.2,5-3.66-15.06Z"/><path class="cls-1" d="M429.4,1146.34a200.85,200.85,0,0,1-49-5.87c-34.43-8.75-53.25-30.51-54-31.43l8.34-7.12c.17.2,17.49,20.07,48.39,27.91,31.66,8.05,70.62,7.14,101.69-2.36,27-8.25,44.2-22.1,54.22-43.58l9.94,4.64c-11.43,24.5-30.8,40.2-61,49.43A202.92,202.92,0,0,1,429.4,1146.34Z"/><path class="cls-1" d="M1136.61,977.18c-20.59,0-38.06-6-53.88-18.19l6.7-8.68c18.76,14.49,40.42,18.9,68.17,13.87,32-5.79,67-22.85,91.47-44.51,24-21.26,30.14-46.72,30.2-47l10.68,2.48c-.27,1.18-7,29.14-33.61,52.7-26.26,23.26-62.44,40.87-96.78,47.09A128.28,128.28,0,0,1,1136.61,977.18Z"/><path class="cls-1" d="M710.44,755a5.58,5.58,0,1,1,6.74,4.11A5.58,5.58,0,0,1,710.44,755Z"/><path class="cls-1" d="M729.64,751.29a5.58,5.58,0,1,1,6.73,4.1A5.58,5.58,0,0,1,729.64,751.29Z"/><path class="cls-1" d="M748.39,745.78a5.58,5.58,0,1,1,6.73,4.11A5.57,5.57,0,0,1,748.39,745.78Z"/><path class="cls-1" d="M767.58,742.08a5.58,5.58,0,1,1,6.74,4.11A5.58,5.58,0,0,1,767.58,742.08Z"/><path class="cls-1" d="M783.84,738.13a5.58,5.58,0,1,1,6.74,4.11A5.57,5.57,0,0,1,783.84,738.13Z"/><path class="cls-1" d="M722.55,765.45a5.58,5.58,0,1,1,6.73,4.1A5.58,5.58,0,0,1,722.55,765.45Z"/><path class="cls-1" d="M741.74,761.74a5.58,5.58,0,1,1,6.74,4.11A5.57,5.57,0,0,1,741.74,761.74Z"/><path class="cls-1" d="M758.69,756.68a5.58,5.58,0,1,1,6.73,4.1A5.57,5.57,0,0,1,758.69,756.68Z"/><path class="cls-1" d="M777.88,753a5.58,5.58,0,1,1,6.73,4.11A5.57,5.57,0,0,1,777.88,753Z"/><path class="cls-1" d="M734.65,775.9a5.58,5.58,0,1,1,6.74,4.11A5.57,5.57,0,0,1,734.65,775.9Z"/><path class="cls-1" d="M753.84,772.2a5.58,5.58,0,1,1,6.74,4.11A5.6,5.6,0,0,1,753.84,772.2Z"/><path class="cls-1" d="M771.91,767.82a5.58,5.58,0,1,1,6.74,4.1A5.58,5.58,0,0,1,771.91,767.82Z"/><path class="cls-1" d="M745.76,833.48A27.89,27.89,0,1,1,779.44,854,27.89,27.89,0,0,1,745.76,833.48Z"/><path class="cls-1" d="M739.7,907.08l2.14-8c.88-3.26,2.76-5.47,5.15-6l78.8-19.13c2.62-.64,5.56.74,8,3.7l4.44,5.54Z"/><path class="cls-1" d="M1030.68,571.15a34,34,0,0,1-33-25.94h0a33.94,33.94,0,1,1,33,25.94Zm-25.88-27.67a26.64,26.64,0,1,0,19.6-32.17,26.67,26.67,0,0,0-19.6,32.17Z"/><path class="cls-1" d="M1051.46,532.16a19.56,19.56,0,0,1-.7,17.27,22.2,22.2,0,0,1-32.32,7.86,19.64,19.64,0,0,1-8.54-15,24.1,24.1,0,0,0,10.77,11.39,20.93,20.93,0,0,0,26.45-6.41A24.06,24.06,0,0,0,1051.46,532.16Z"/><path class="cls-1" d="M1042.15,675.12a19.58,19.58,0,0,1,.71-17.28,22.19,22.19,0,0,1,32.32-7.85,19.58,19.58,0,0,1,8.53,15A24.06,24.06,0,0,0,1073,653.65a20.92,20.92,0,0,0-26.46,6.41A24.1,24.1,0,0,0,1042.15,675.12Z"/><path class="cls-1" d="M1117.52,607.88a19.61,19.61,0,0,1-17.28-.7,22.19,22.19,0,0,1-7.85-32.32,19.57,19.57,0,0,1,15-8.54A24.1,24.1,0,0,0,1096,577.09a20.93,20.93,0,0,0,6.41,26.45A24.09,24.09,0,0,0,1117.52,607.88Z"/><path class="cls-1" d="M985.91,639.82a24.06,24.06,0,0,0,11.4-10.76,20.91,20.91,0,0,0-6.43-26.45,24.06,24.06,0,0,0-15-4.35,19.58,19.58,0,0,1,17.28.7,22.2,22.2,0,0,1,7.84,32.32A19.62,19.62,0,0,1,985.91,639.82Z"/><path class="cls-1" d="M1062.44,702a34,34,0,0,1-33-26h0a33.94,33.94,0,1,1,33,26Zm-25.89-27.67a26.64,26.64,0,1,0,19.61-32.17,26.68,26.68,0,0,0-19.61,32.17Z"/><path class="cls-1" d="M1112,620.7a34,34,0,1,1,8-1A34,34,0,0,1,1112,620.7Zm0-60.6a26.64,26.64,0,1,0,25.89,20.36A26.63,26.63,0,0,0,1112,560.1Z"/><path class="cls-1" d="M981.14,652.45a34,34,0,1,1,8-1A34,34,0,0,1,981.14,652.45Zm0-60.59A26.64,26.64,0,1,0,1007,612.22,26.55,26.55,0,0,0,981.14,591.86Z"/><polygon class="cls-1" points="351.93 590.4 354.51 608.91 372.14 602.72 366.88 581.03 351.93 590.4"/><polygon class="cls-1" points="384.94 576.65 388.4 598.77 399.24 596.14 393.54 572.65 384.94 576.65"/><polygon class="cls-1" points="1029.51 425.95 1035.71 443.58 1017.2 446.16 1011.94 424.48 1029.51 425.95"/><polygon class="cls-1" points="993.87 428.86 1000.94 450.11 990.09 452.74 984.39 429.25 993.87 428.86"/><path class="cls-1" d="M779.28,869.11Z"/><path class="cls-1" d="M833,798.92c-7.83,7.64-9,34.72-11,50.5-.91,7.2-22.16,15.15-41.77,19.47-19.4,5.14-43.76,8.27-47.87,2.29-9-13.13-22.47-36.64-32.93-39.84,0,0,22,34.83,9.81,72.24L733,897.8s-.37-9.47,6.95-11.25l82.31-20c7.32-1.77,11.34,6.82,11.34,6.82l23.78-5.77C829.35,840,833,798.92,833,798.92Z"/><path class="cls-1" d="M779.28,869.11c.62-.18.28-.09,0,0Z"/><path class="cls-2" d="M885.32,556l-5.87-24.19a7.08,7.08,0,0,1,5.21-8.55h0a7.07,7.07,0,0,1,8.54,5.21l5.87,24.19a7.06,7.06,0,0,1-5.2,8.54h0A7.07,7.07,0,0,1,885.32,556Z"/><path class="cls-1" d="M344.47,625.38s79.58-29.52,113.23-27.49c0,0,6.83,12.38,17.35,13.65s28.29-4.31,28.29-4.31-18.73,12.19-33.44,9.39c-13.88-2.65-20.08-9.16-20.08-9.16S353.16,629.64,344.47,625.38Z"/><path class="cls-2" d="M571.12,587l265-64.32S793.58,547,706.85,568,571.12,587,571.12,587Z"/><rect class="cls-1" x="416.08" y="567.79" width="23.55" height="19.21" transform="translate(-124.11 117.2) rotate(-13.64)"/><rect class="cls-1" x="943.51" y="439.46" width="26.03" height="17.97" transform="translate(1991.84 658.6) rotate(166.36)"/><path class="cls-1" d="M356.87,1139s33.56,17.37,85,13.82,78.92-21.71,78.92-21.71-26,61.15-74.38,61.42-57.9-17.83-57.9-17.83,26.72,5,43.29-.31C431.79,1174.35,394.23,1172,356.87,1139Z"/><path class="cls-1" d="M1276,915.89s-21.86,30.82-69.2,51.24S1126.69,984,1126.69,984s51.12,42.44,94.26,20.49,43.29-42.4,43.29-42.4-21.46,16.69-38.62,19.58C1225.62,981.69,1257.92,962.37,1276,915.89Z"/><path class="cls-1" d="M375.61,885.05s40.47,17,87.45,5.56C505.24,880.37,514.68,859,514.68,859s6.48,42.43,14.92,61.43,18.73,29.89,18.73,29.89-15,87.84-15.74,124.36c0,0-24.63,40.42-50.8,42.94,0,0,24.16-168.49,15.44-212.29C497.23,905.28,423.59,925.06,375.61,885.05Z"/><path class="cls-1" d="M1149,697.35s-28.63,31.83-70.19,41.91c-42.18,10.24-65.38-1.35-65.38-1.35s13.7,40.68,14.91,61.43-3,35.16-3,35.16,53.63,71.17,71,103.31c0,0,40.42,24.63,64.84,14.87,0,0-98.71-138.67-111-181.6C1050.14,771.08,1124.66,754.91,1149,697.35Z"/><path class="cls-1" d="M1090.36,869.17c-15.17-35.74-29.28-72.08-43.19-108.33-6.73-17.52-13.37-35.06-19.79-52.69q-5.12-14-10.11-28.11c-2.94-8.3-5-17.69-10.11-24.94-2.34-3.31-5.41.61-5.12,3.41,1.75,17.24,10.79,34.78,16.86,50.92q10.45,27.83,21.64,55.37c14.73,36.07,30.91,71.28,47.56,106.48,1.15,2.43,3-.39,2.26-2.11Z"/><path class="cls-1" d="M821.16,636.94C846.23,644,871.45,650.41,897,655.6q17.73,3.6,35.59,6.52c12.3,2,26.11,5.79,38.57,4.65,2.63-.24,2.67-5.45.4-6.25-11.17-3.95-24-4.24-35.67-6.07q-19.77-3.11-39.45-6.81c-24.94-4.67-49.8-9.86-74.44-15.95-2.57-.64-3,4.64-.82,5.25Z"/><path class="cls-1" d="M783.24,643c4.21,34.06,25.44,63.67,54.11,82,26.37,16.84,65.84,29,95.76,14.16,2.76-1.37,2.87-8.78-1-8.6-15,.68-29.43,2.37-44.38,0a124,124,0,0,1-44.7-16.33c-27-16.25-47.76-42.45-55.47-73.2-1.15-4.57-4.78-1.58-4.34,1.95Z"/><path class="cls-1" d="M906.84,726.74A269.19,269.19,0,0,0,921,780.21c5.82,15.16,12.63,33.89,24.47,45.45,3.5,3.42,4.58-4.45,3.95-6.34-5.22-15.92-14.55-30.63-20.84-46.2a397.87,397.87,0,0,1-16.2-48.87c-1.48-5.75-6.29-2.11-5.54,2.49Z"/><path class="cls-1" d="M938.45,840.59c-72.16,16.13-135.4,77.6-147,151.81-.36,2.31,2.63,5.7,3.61,2.2,19.82-70.7,72.18-128.51,144.07-148.07,2.21-.6,1.66-6.46-.67-5.94Z"/><path class="cls-2" d="M797.25,623C764.72,642.52,816.77,737.35,906,737.35c0,0,19.56,74.36,34.88,97.14,0,0-93.44,22.78-138.07,103.66s-5.57,145,61.36,156.18,108.77-13.95,128.29-53,75.3-108.77,111.55-150.6c30.4-35.08-24.1-67.33-53.88-138.25s-24.2-107.17-116.24-110S825.14,606.27,797.25,623Z"/><path class="cls-1" d="M895.27,1102.53a195.34,195.34,0,0,1-32-2.79c-34.54-5.76-62.14-25.15-75.72-53.2-15.31-31.63-11.59-71.07,10.46-111,38.62-70,111.52-97.26,134.54-104.35-12.84-24.22-26.8-73.8-30.77-88.38-64.67-2.09-108.3-51.61-117.64-85.32-5-18-1.23-32.24,10.28-39.15,15.8-9.48,28.42-5.12,47.51,1.49,19.35,6.69,45.84,15.85,92.13,17.26,80,2.42,90.06,30,108.36,80.16,3.61,9.9,7.71,21.13,12.76,33.15,10.85,25.84,24.9,46.22,37.29,64.19,21,30.47,37.57,54.53,15.69,79.78-31.66,36.53-90.62,109.11-110.8,149.46C985.71,1067.12,957.7,1102.53,895.27,1102.53Zm-82-478.7a24.73,24.73,0,0,0-13.22,3.88h0c-9.89,5.93-7,20.73-5.35,26.82,8.64,31.19,50,77.34,111.29,77.34a5.49,5.49,0,0,1,5.31,4.08c.19.74,19.49,73.73,34.12,95.48a5.49,5.49,0,0,1-3.25,8.39c-.91.22-91.68,23.24-134.56,101-20.29,36.77-23.91,72.62-10.2,101,12,24.8,36.67,42,67.65,47.16,58,9.67,101.52-8.1,122.48-50,20.66-41.31,80.32-114.82,112.32-151.73,15.63-18,5.69-34.27-16.44-66.37-12.06-17.51-27.07-39.29-38.36-66.17-5.15-12.27-9.3-23.62-12.95-33.64-17.74-48.59-25.84-70.76-98.4-73-48-1.45-76.49-11.33-95.37-17.86C827.6,626.43,820.07,623.83,813.29,623.83Z"/><path class="cls-2" d="M568.56,500.29s-64.15-41.83-78.09,33.47S540.67,676,576.92,662.05s27.89-58.57,27.89-58.57Z"/><path class="cls-1" d="M566.53,669.39c-12.09,0-25.61-5.69-38.68-16.55-28-23.3-52.14-69.47-42.77-120.08,4.46-24.12,14.45-39.66,29.67-46.18,25.54-10.95,55.54,8.3,56.8,9.12a5.45,5.45,0,0,1,2.18,2.78L610,601.66a6,6,0,0,1,.21.81c3.19,17,.74,52.37-31.31,64.7A34.25,34.25,0,0,1,566.53,669.39Zm-34.6-175.2A32.43,32.43,0,0,0,519,496.67c-11.62,5-19.42,17.82-23.18,38.09-8.56,46.24,13.42,88.39,39,109.65,14.4,12,29.39,16.64,40.1,12.52,30.19-11.61,25.25-47.67,24.53-52.06L564,504C559.55,501.37,545.85,494.19,531.93,494.19Z"/><path class="cls-2" d="M669,464s-14-44.62-61.36-30.68-39,66.93-39,66.93l39,117.14s30.68,41.83,61.36,27.89,30.68-64.15,27.89-86.46S669,464,669,464Z"/><path class="cls-1" d="M655.81,653.69c-28,0-51.47-31.45-52.63-33a5.42,5.42,0,0,1-.78-1.51L563.36,502a5.39,5.39,0,0,1-.22-.88c-.09-.58-8.52-57.92,42.92-73,50.5-14.86,67,31.06,68.08,34.14h0c1,3,25.32,73.32,28.15,95.94.94,7.56,8.09,74.33-31.06,92.13A36.91,36.91,0,0,1,655.81,653.69Zm-43.29-38.87c3.86,5,29.83,36.56,54.17,25.5,26-11.82,27.77-56.34,24.71-80.78-2.68-21.49-27.37-93-27.62-93.71a.78.78,0,0,1,0-.14c-.52-1.63-13.06-39.28-54.58-27.07-40.67,12-35.94,55.32-35.24,60.4Z"/><path class="cls-2" d="M732.13,391.53C692,395.77,661,425,668.89,464S690,589.54,705.78,611.85s68,33.78,86.58-12.09c10.57-26.07-10.55-98.72-4.88-144.09C793.05,411.09,758.49,388.74,732.13,391.53Z"/><path class="cls-1" d="M747.85,636.85c-18.36,0-37.18-8.61-46.54-21.83-13.44-19-24.53-78.89-32.62-122.65-1.88-10.13-3.65-19.69-5.18-27.24-3.57-17.66,0-34.39,10.24-48.4,12.4-16.91,33.47-28.08,57.81-30.66h0c16-1.68,33.27,4.82,45.19,17,13.06,13.31,18.8,32.24,16.17,53.31-2.61,20.84.64,47.72,3.77,73.72,3.68,30.44,6.85,56.73.76,71.75-8.14,20.07-23.44,32.38-43.09,34.66A56.44,56.44,0,0,1,747.85,636.85ZM732.71,397c-21.27,2.25-39.54,11.82-50.12,26.24-8.39,11.45-11.27,25.19-8.33,39.73,1.55,7.64,3.33,17.25,5.21,27.43,7.47,40.34,18.75,101.31,30.79,118.3,6.94,9.8,24.31,19.05,42.83,16.9,11-1.27,25.79-7.14,34.19-27.88,5-12.4,1.87-38.59-1.48-66.32-3.21-26.65-6.54-54.21-3.77-76.39,2.84-22.66-5.56-36.58-13.11-44.26-9.63-9.82-23.5-15.09-36.21-13.75Z"/><path class="cls-2" d="M875.42,363.64C823.72,343,794.79,377.58,789,411.05s-2.88,69.72-2.88,69.72-14.4,100.4,37.44,111.56,54.71-47.41,63.35-89.25S924.37,383.16,875.42,363.64Z"/><path class="cls-1" d="M835.64,599.18a62.64,62.64,0,0,1-13.21-1.49C767.86,585.94,779.37,490,780.64,480.6c-.37-5.08-2.48-38.69,3-70.48,3.83-22.26,16.33-41.27,33.43-50.84,16.94-9.48,37.82-9.74,60.4-.74h0c46,18.36,30.83,79.9,19.75,124.84-1.86,7.52-3.61,14.62-4.89,20.81-1.07,5.16-2,10.49-3,16.15-5,27.59-10.61,58.87-30.59,72.25A40.49,40.49,0,0,1,835.64,599.18ZM846,362.88a47.43,47.43,0,0,0-23.54,6c-14.24,8-24.7,24.1-28,43.13-5.57,32.41-2.84,68-2.81,68.36a5.45,5.45,0,0,1,0,1.21c-.14.95-13.08,95.46,33.16,105.42,11.52,2.47,20.62,1.34,27.83-3.49,16.11-10.79,21.31-39.64,25.9-65.09,1-5.72,2-11.13,3.09-16.42,1.32-6.39,3.1-13.6,5-21.22,10.12-41,24-97.2-13.16-112C863.6,364.83,854.43,362.88,846,362.88Z"/><path class="cls-1" d="M741.77,1022.94c1.09-30.63,13.44-60.44,32.24-84.43,19.6-25,45.21-38.62,73.16-52.24,2.13-1,2.22-7-.76-6.72-31.61,3.2-60.12,27.9-78.52,52.31A147.43,147.43,0,0,0,738.34,1023c0,3.24,3.31,3.09,3.43-.08Z"/><path class="cls-1" d="M814.1,1026.7c20.21,33,59.59,51.66,98,44.42,35.76-6.73,66.43-34.4,75.18-69.91.59-2.42-2.35-5.5-3.61-2.2-12.44,32.55-40.45,59-75.67,64.37-34.78,5.29-71.6-11-92.51-39-1.2-1.62-2.09,1.22-1.43,2.3Z"/><path class="cls-1" d="M668.1,1174.82c47.48-2.56,96-19.71,130.73-52.93,1.6-1.53.57-6.69-2-4.83-38.58,28.15-80.85,48.06-128.88,52.63-2.27.21-2.15,5.26.13,5.13Z"/><path class="cls-1" d="M568.19,587c-5.92-11.16-24.94-8.75-33.89-2.66-12.15,8.29-10.34,25.85-3.51,37,7.36,12,22.41,25.4,37.57,22.4,16.57-3.29,19.72-20.49,13.23-33.87-1.06-2.18-2.79-.55-2.81,1.25,0,5.65.66,12.82-3.09,17.36-3,3.63-8.31,5.42-12.9,5.44-10,0-18.72-6.85-24.77-14.23-8.33-10.16-10.21-25.07,2.89-32.23,7.35-4,20.05-5.38,26.36,1.07.73.75,1.19-1,.92-1.49Z"/><path class="cls-1" d="M671.13,570.83C664.82,554,644.41,550.26,629,556.08c-16.74,6.34-17.75,26.37-13.34,41.4,4.3,14.7,16.17,30.51,32,33.71,17.7,3.6,33.87-11.05,32.72-28.91-.11-1.71-2.28-3.76-3-1.17-3.61,12.25-13.48,21.34-27,19.58-12.21-1.59-22.41-13-26.73-23.86-5.13-12.94-4.28-27.27,10-33.1,13.41-5.47,27.91-4.17,36.51,8.34.69,1,1.23-.64,1-1.24Z"/><path class="cls-1" d="M764.07,541.63c-13.25-12.84-34.13-10.84-45.28,3.7-10.64,13.86-7.71,34.42-2.37,49.84s20.52,24.69,36.57,18.64c15.68-5.92,21.65-23.15,18.31-38.44-.59-2.69-3.19-1.72-3.12.72.37,13-7.17,27.41-20.85,29.93-14.67,2.7-24-6.84-27.51-20.29-3.59-13.84-4.79-29.18,6.93-39.55,10.51-9.28,25.07-8.23,36.65-1.86,1.27.7,1.28-2.1.67-2.69Z"/><path class="cls-1" d="M855.42,515.56c-5.89-11.6-18.48-16.62-31.07-13.36-13,3.36-21.26,15.44-23.62,28.14-2.44,13,.67,29.69,11.94,37.92,13.31,9.73,30.21,5,39.07-7.91.64-.93.23-5-1.58-3.84-8.69,5.44-19.39,9.86-29.59,6-12.8-4.82-16.33-19.68-13.61-31.92,4.65-20.82,32.13-30.48,46.46-12.58,1.43,1.78,2.66-1.18,2-2.48Z"/><path class="cls-1" d="M626.93,1090.94c-7.18-10.92-12.12-21-15.19-33.83-2.62-10.92-4.49-22-6.87-33a311.73,311.73,0,0,0-9.63-34C592,980.4,588.61,964,580.07,957.6c-3.72-2.77-5.06,3.36-4.75,5.85,1.54,12.13,10.46,24.19,14.9,35.63a324.1,324.1,0,0,1,12.22,39c4.55,18.24,9.22,41.14,23.74,54.44.81.75,1.07-1.1.75-1.59Z"/><path class="cls-1" d="M823.3,622.57c-8.93,1.34-14.92,10-14.09,18.9,1,10.67,11.21,19.21,20.35,23.27,11.27,5,24.24,4.24,34.37-3,7.1-5.07,15.74-15.41,11.43-24.48-1.92-4-4.67.06-4.25,2.88,1,7.18-8.64,14.65-14.05,17.42A31,31,0,0,1,839,660.72c-14.79-1.91-40.61-24.56-15.13-33.46,1.64-.58,1.41-5-.54-4.69Z"/><path class="cls-1" d="M931.9,696.23c6.27-10.54,12.7-21.44,22.06-29.6,10.06-8.76,21.16-9.69,33.61-12,2.16-.39,2.25-4.38.33-5.2-11.33-4.82-24,2.33-32.47,9.78-11,9.67-18,22.45-24.77,35.2-.48.9.43,3.15,1.24,1.79Z"/><path class="cls-1" d="M961.52,692.34c6.1-8.06,14.26-15.28,24.08-18.32,8.35-2.59,17.37-1.18,25.59-3.77,2.19-.69,1.8-5.33-.15-6.06-9.66-3.61-20.53,2.19-28.77,6.95a67.79,67.79,0,0,0-22,19.46c-.61.85.28,2.95,1.21,1.74Z"/><path class="cls-1" d="M901,713.24c1.69,10.71,4.69,21.31,7.3,31.83,2.36,9.55,4.1,19.36,7.46,28.62,1.1,3,3.91.66,3.76-1.66a166.55,166.55,0,0,0-16.45-60.19c-1-1.91-2.29,0-2.07,1.4Z"/><path class="cls-1" d="M1076.91,832.67c10.37,16.16,10.94,38.08-.69,53.76-9.81,13.21-29,23.85-45.55,18.75-2.1-.65-2.15,3.2-1,4.14,17.13,14.49,44.08-4.43,53.14-19.91,11.16-19,9.1-42.09-4.21-59.4-1.41-1.84-2.46,1.42-1.66,2.66Z"/></g></g></svg>